<svg width="32" height="32" viewBox="0 0 32 32" fill="none" xmlns="http://www.w3.org/2000/svg">
<rect width="32" height="32" rx="4" fill="#BEF364"/>
<path d="M17.176 21.0279L15.8178 17.8373L14.2673 21.5092L8.45779 18.9675L8.59298 21.9851L15.8835 25.3642L24.312 21.2195L24.1961 17.3645L17.176 21.0279ZM26.737 9.14302L18.29 6.64151L15.9685 8.70421L13.5813 6.88254L5.17523 10.3636L8.10782 12.7176L5.45798 16.8144L13.8633 20.4887L15.8178 15.8549L17.5607 19.9556L26.3623 15.3651L23.9636 11.7264L26.7386 9.14225L26.737 9.14302ZM15.7846 15.2925L8.78535 12.3336L15.9515 9.16465L23.3734 11.6793L15.7846 15.2925Z" fill="#73A917"/>
</svg>
